{
	"asset":{
		"version":"2.0",
		"generator":"Created using the official Cinema 4D glTF Exporter 1.000x284978"
	},
	"scenes":[{
		"nodes":[0,
		1,
		2]
	}],
	"nodes":[{
		"name":"立方体.2",
		"mesh":0,
		"translation":[0.0,
		0.0,
		-57.326839447021487],
		"rotation":[0.0,
		0.0,
		0.0,
		-1.0],
		"scale":[1.0,
		1.0,
		1.0]
	},
	{
		"name":"立方体.1",
		"mesh":1,
		"translation":[0.0,
		0.0,
		-28.678138732910158],
		"rotation":[0.0,
		0.0,
		0.0,
		-1.0],
		"scale":[1.0,
		1.0,
		1.0]
	},
	{
		"name":"立方体",
		"mesh":2
	}],
	"meshes":[{
		"name":"立方体.2",
		"primitives":[{
			"attributes":{
				"POSITION":1,
				"NORMAL":2,
				"TEXCOORD_0":3
			},
			"indices":0
		}]
	},
	{
		"name":"立方体.1",
		"primitives":[{
			"attributes":{
				"POSITION":5,
				"NORMAL":6,
				"TEXCOORD_0":7
			},
			"indices":4
		}]
	},
	{
		"name":"立方体",
		"primitives":[{
			"attributes":{
				"POSITION":9,
				"NORMAL":10,
				"TEXCOORD_0":11
			},
			"indices":8
		}]
	}],
	"accessors":[{
		"byteOffset":0,
		"bufferView":0,
		"type":"SCALAR",
		"componentType":5123,
		"min":[0],
		"count":36,
		"max":[23]
	},
	{
		"byteOffset":0,
		"bufferView":1,
		"type":"VEC3",
		"componentType":5126,
		"min":[-36.45199966430664,
		-8.0,
		-9.987000465393067],
		"count":24,
		"max":[36.45199966430664,
		8.0,
		9.987000465393067]
	},
	{
		"byteOffset":12,
		"bufferView":1,
		"type":"VEC3",
		"componentType":5126,
		"min":[-1.0,
		-1.0,
		-1.0],
		"count":24,
		"max":[1.0,
		1.0,
		1.0]
	},
	{
		"byteOffset":24,
		"bufferView":1,
		"type":"VEC2",
		"componentType":5126,
		"min":[0.0,
		0.0],
		"count":24,
		"max":[1.0,
		1.0]
	},
	{
		"byteOffset":0,
		"bufferView":2,
		"type":"SCALAR",
		"componentType":5123,
		"min":[0],
		"count":36,
		"max":[23]
	},
	{
		"byteOffset":0,
		"bufferView":3,
		"type":"VEC3",
		"componentType":5126,
		"min":[-9.746199607849121,
		-8.0,
		-18.904937744140626],
		"count":24,
		"max":[9.746199607849121,
		8.0,
		18.904937744140626]
	},
	{
		"byteOffset":12,
		"bufferView":3,
		"type":"VEC3",
		"componentType":5126,
		"min":[-1.0,
		-1.0,
		-1.0],
		"count":24,
		"max":[1.0,
		1.0,
		1.0]
	},
	{
		"byteOffset":24,
		"bufferView":3,
		"type":"VEC2",
		"componentType":5126,
		"min":[0.0,
		0.0],
		"count":24,
		"max":[1.0,
		1.0]
	},
	{
		"byteOffset":0,
		"bufferView":4,
		"type":"SCALAR",
		"componentType":5123,
		"min":[0],
		"count":36,
		"max":[23]
	},
	{
		"byteOffset":0,
		"bufferView":5,
		"type":"VEC3",
		"componentType":5126,
		"min":[-40.67900085449219,
		-8.0,
		-9.987000465393067],
		"count":24,
		"max":[40.67900085449219,
		8.0,
		9.987000465393067]
	},
	{
		"byteOffset":12,
		"bufferView":5,
		"type":"VEC3",
		"componentType":5126,
		"min":[-1.0,
		-1.0,
		-1.0],
		"count":24,
		"max":[1.0,
		1.0,
		1.0]
	},
	{
		"byteOffset":24,
		"bufferView":5,
		"type":"VEC2",
		"componentType":5126,
		"min":[0.0,
		0.0],
		"count":24,
		"max":[1.0,
		1.0]
	}],
	"bufferViews":[{
		"buffer":0,
		"target":34963,
		"byteOffset":0,
		"byteLength":72
	},
	{
		"buffer":0,
		"target":34962,
		"byteOffset":72,
		"byteLength":768,
		"byteStride":32
	},
	{
		"buffer":1,
		"target":34963,
		"byteOffset":0,
		"byteLength":72
	},
	{
		"buffer":1,
		"target":34962,
		"byteOffset":72,
		"byteLength":768,
		"byteStride":32
	},
	{
		"buffer":2,
		"target":34963,
		"byteOffset":0,
		"byteLength":72
	},
	{
		"buffer":2,
		"target":34962,
		"byteOffset":72,
		"byteLength":768,
		"byteStride":32
	}],
	"buffers":[{
		"uri":"data:application/octet-stream;base64,",
		"byteLength":840
	},
	{
		"uri":"data:application/octet-stream;base64,",
		"byteLength":840
	},
	{
		"uri":"data:application/octet-stream;base64,",
		"byteLength":840
	}]
}