{
	"asset":{
		"version":"2.0",
		"generator":"Created using the official Cinema 4D glTF Exporter 1.000x284978"
	},
	"scenes":[{
		"nodes":[0,
		1,
		2]
	}],
	"nodes":[{
		"name":"立方体.2",
		"mesh":0,
		"translation":[-26.97496795654297,
		0.007744156289845705,
		13.638461112976075],
		"rotation":[0.0,
		0.0,
		0.0,
		-1.0],
		"scale":[1.0,
		1.0,
		1.0]
	},
	{
		"name":"立方体.1",
		"mesh":1,
		"translation":[-44.154239654541019,
		4.0,
		3.632906436920166],
		"rotation":[0.0,
		0.0,
		0.0,
		-1.0],
		"scale":[1.0,
		1.0,
		1.0]
	},
	{
		"name":"立方体",
		"mesh":2
	}],
	"meshes":[{
		"name":"立方体.2",
		"primitives":[{
			"attributes":{
				"POSITION":1,
				"NORMAL":2,
				"TEXCOORD_0":3
			},
			"indices":0
		}]
	},
	{
		"name":"立方体.1",
		"primitives":[{
			"attributes":{
				"POSITION":5,
				"NORMAL":6,
				"TEXCOORD_0":7
			},
			"indices":4
		}]
	},
	{
		"name":"立方体",
		"primitives":[{
			"attributes":{
				"POSITION":9,
				"NORMAL":10,
				"TEXCOORD_0":11
			},
			"indices":8
		}]
	}],
	"accessors":[{
		"byteOffset":0,
		"bufferView":0,
		"type":"SCALAR",
		"componentType":5123,
		"min":[0],
		"count":36,
		"max":[23]
	},
	{
		"byteOffset":0,
		"bufferView":1,
		"type":"VEC3",
		"componentType":5126,
		"min":[-10.0,
		-4.0,
		-20.0],
		"count":24,
		"max":[10.0,
		4.0,
		20.0]
	},
	{
		"byteOffset":12,
		"bufferView":1,
		"type":"VEC3",
		"componentType":5126,
		"min":[-1.0,
		-1.0,
		-1.0],
		"count":24,
		"max":[1.0,
		1.0,
		1.0]
	},
	{
		"byteOffset":24,
		"bufferView":1,
		"type":"VEC2",
		"componentType":5126,
		"min":[0.0,
		0.0],
		"count":24,
		"max":[1.0,
		1.0]
	},
	{
		"byteOffset":0,
		"bufferView":2,
		"type":"SCALAR",
		"componentType":5123,
		"min":[0],
		"count":36,
		"max":[23]
	},
	{
		"byteOffset":0,
		"bufferView":3,
		"type":"VEC3",
		"componentType":5126,
		"min":[-10.0,
		-8.0,
		-30.0],
		"count":24,
		"max":[10.0,
		8.0,
		30.0]
	},
	{
		"byteOffset":12,
		"bufferView":3,
		"type":"VEC3",
		"componentType":5126,
		"min":[-1.0,
		-1.0,
		-1.0],
		"count":24,
		"max":[1.0,
		1.0,
		1.0]
	},
	{
		"byteOffset":24,
		"bufferView":3,
		"type":"VEC2",
		"componentType":5126,
		"min":[0.0,
		0.0],
		"count":24,
		"max":[1.0,
		1.0]
	},
	{
		"byteOffset":0,
		"bufferView":4,
		"type":"SCALAR",
		"componentType":5123,
		"min":[0],
		"count":36,
		"max":[23]
	},
	{
		"byteOffset":0,
		"bufferView":5,
		"type":"VEC3",
		"componentType":5126,
		"min":[-22.529300689697267,
		-4.0,
		-33.682098388671878],
		"count":24,
		"max":[22.529300689697267,
		4.0,
		33.682098388671878]
	},
	{
		"byteOffset":12,
		"bufferView":5,
		"type":"VEC3",
		"componentType":5126,
		"min":[-1.0,
		-1.0,
		-1.0],
		"count":24,
		"max":[1.0,
		1.0,
		1.0]
	},
	{
		"byteOffset":24,
		"bufferView":5,
		"type":"VEC2",
		"componentType":5126,
		"min":[0.0,
		0.0],
		"count":24,
		"max":[1.0,
		1.0]
	}],
	"bufferViews":[{
		"buffer":0,
		"target":34963,
		"byteOffset":0,
		"byteLength":72
	},
	{
		"buffer":0,
		"target":34962,
		"byteOffset":72,
		"byteLength":768,
		"byteStride":32
	},
	{
		"buffer":1,
		"target":34963,
		"byteOffset":0,
		"byteLength":72
	},
	{
		"buffer":1,
		"target":34962,
		"byteOffset":72,
		"byteLength":768,
		"byteStride":32
	},
	{
		"buffer":2,
		"target":34963,
		"byteOffset":0,
		"byteLength":72
	},
	{
		"buffer":2,
		"target":34962,
		"byteOffset":72,
		"byteLength":768,
		"byteStride":32
	}],
	"buffers":[{
		"uri":"data:application/octet-stream;base64,",
		"byteLength":840
	},
	{
		"uri":"data:application/octet-stream;base64,",
		"byteLength":840
	},
	{
		"uri":"data:application/octet-stream;base64,",
		"byteLength":840
	}]
}